<svg xmlns="http://www.w3.org/2000/svg" width="208" height="33" fill="none" viewBox="0 0 208 33"><path fill="#fff" d="M0.135135 3.04079C0.12329 2.71966 0.177777 2.40087 0.29386 2.10318C0.409943 1.80549 0.585252 1.53827 0.807942 1.31558C1.32439 0.870219 1.97351 0.628784 2.64395 0.628784C3.31438 0.628784 3.9635 0.872563 4.47995 1.31558C4.70027 1.54295 4.87558 1.81252 4.99403 2.11021C5.11248 2.4079 5.17408 2.72669 5.17408 3.05016C5.17408 3.37364 5.11248 3.69243 4.99403 3.99012C4.87558 4.28781 4.70027 4.55737 4.47995 4.78474C3.96587 5.23011 3.31912 5.47154 2.64868 5.47154C1.97825 5.47154 1.3315 5.22776 0.817418 4.78474C0.594728 4.55972 0.41705 4.28781 0.300967 3.98777C0.184885 3.68539 0.128028 3.36426 0.135135 3.04079ZM4.8969 25.0278H0.395729V7.55304H4.8969V25.0278Z"/><path fill="#fff" d="M7.82529 16.2073C7.82529 13.4976 8.48389 11.32 9.7987 9.66982C10.4147 8.86817 11.2201 8.2259 12.1441 7.7946C13.068 7.3633 14.0843 7.15703 15.1053 7.19453C15.9772 7.15 16.849 7.30705 17.6497 7.65162C18.4504 7.99619 19.1564 8.52125 19.7155 9.17992L19.9074 7.51566H24.2641V24.5661C24.2996 25.9842 23.9253 27.3813 23.1885 28.6002C22.466 29.7441 21.4141 30.6535 20.168 31.2138C18.7347 31.8373 17.1806 32.142 15.6147 32.1068C14.2928 32.1068 12.9851 31.842 11.7674 31.3357C10.6634 30.9208 9.68736 30.2293 8.93874 29.3315L11.059 26.4624C11.5944 27.0859 12.2625 27.5852 13.0159 27.9274C13.7692 28.2697 14.5913 28.4431 15.4204 28.4384C16.5102 28.4994 17.581 28.1384 18.4007 27.4329C18.7679 27.0555 19.0522 26.6101 19.2346 26.1202C19.417 25.6303 19.4928 25.1099 19.4596 24.5895V23.6449C18.9148 24.252 18.242 24.7302 17.4839 25.049C16.7281 25.3678 15.9085 25.5154 15.0864 25.4826C14.0748 25.5084 13.0703 25.2974 12.1583 24.8638C11.2462 24.4302 10.4549 23.7902 9.84609 22.9956C8.50521 21.3314 7.84425 19.1116 7.84425 16.4019V16.2026H7.82056L7.82529 16.2073ZM12.6226 16.5449C12.5492 17.8669 12.8927 19.1795 13.6081 20.3023C13.8995 20.736 14.2999 21.0923 14.7689 21.3314C15.2404 21.5704 15.7639 21.69 16.2946 21.6736C16.92 21.7158 17.5431 21.5892 18.0974 21.3032C18.6518 21.0196 19.1161 20.5906 19.4383 20.0632V12.6303C19.1256 12.1053 18.6684 11.674 18.1188 11.3903C17.5692 11.1067 16.9508 10.9778 16.3325 11.02C15.7947 11.0036 15.2641 11.1231 14.7879 11.3669C14.3117 11.6107 13.909 11.9717 13.6176 12.4147C12.9566 13.3406 12.6226 14.7118 12.6226 16.5449V16.5449Z"/><path fill="#fff" d="M31.9091 7.52522L32.0608 9.6114C32.6672 8.82849 33.4466 8.2003 34.3374 7.78071C35.2282 7.36113 36.2066 7.1572 37.1897 7.19236C39.0802 7.19236 40.4898 7.75962 41.4042 8.89178C42.3187 10.0263 42.802 11.6812 42.8304 13.9197V25.5555H38.0663V14.0322C38.1373 13.2329 37.9004 12.436 37.41 11.8054C37.1092 11.5499 36.7609 11.3577 36.3843 11.2382C36.0076 11.1186 35.6143 11.0764 35.2211 11.1139C34.6098 11.0905 34.0034 11.2382 33.4727 11.5452C32.942 11.8499 32.5038 12.3 32.2124 12.8438V25.5437H27.4482V7.53694L31.9091 7.52522Z"/><path fill="#fff" d="M45.7463 3.04045C45.7345 2.71931 45.7961 2.40053 45.924 2.10284C46.0519 1.80514 46.2438 1.53792 46.4902 1.3129C47.0611 0.869877 47.7813 0.626099 48.5228 0.626099C49.2643 0.626099 49.9821 0.869877 50.5555 1.3129C51.0435 1.77467 51.3159 2.39818 51.3159 3.04748C51.3159 3.69677 51.0435 4.32028 50.5555 4.78206C49.9869 5.22508 49.2691 5.46886 48.5299 5.46886C47.7908 5.46886 47.073 5.22508 46.5044 4.78206C46.258 4.55703 46.0638 4.28512 45.9335 3.98509C45.8032 3.68505 45.7416 3.36392 45.751 3.04045H45.7463ZM51.0103 25.0298H46.0377V7.5527H51.0103V25.0274V25.0298Z"/><path fill="#fff" d="M60.0911 3.25198V7.63296H63.0738V11.1256H60.0911V20.0375C60.0437 20.5415 60.1788 21.0478 60.4702 21.458C60.6644 21.6268 60.8895 21.751 61.1335 21.826C61.3775 21.8987 61.6334 21.9198 61.8845 21.8846C62.3417 21.887 62.7966 21.8518 63.2491 21.7768V25.389C62.3346 25.6749 61.3823 25.8179 60.4275 25.8156C57.1654 25.8156 55.5047 24.1302 55.4454 20.7619V11.1467H52.9082V7.65406H55.4454V3.27307H60.0935V3.24963L60.0911 3.25198Z"/><path fill="#fff" d="M73.5636 25.8086C72.3744 25.8531 71.1875 25.6633 70.0717 25.2484C68.9582 24.8335 67.9395 24.2006 67.0748 23.3872C65.4047 21.7722 64.5731 19.6274 64.5731 16.9294V16.4606C64.54 14.7917 64.9024 13.1391 65.6274 11.6343C66.2788 10.2724 67.3165 9.1285 68.6147 8.34325C69.9461 7.56035 71.4718 7.16186 73.0211 7.1853C75.4944 7.1853 77.456 7.95883 78.875 9.51058C80.2941 11.0623 81.0119 13.254 81.0119 16.0926V18.0452H69.4818C69.5884 19.1258 70.0906 20.129 70.8961 20.8674C71.7205 21.5823 72.789 21.9597 73.8835 21.9222C74.7197 21.9597 75.556 21.7956 76.3141 21.4464C77.0745 21.0971 77.7379 20.5697 78.2496 19.9134L80.6257 22.5551C79.8771 23.5958 78.8584 24.4186 77.6787 24.9366C76.3899 25.5297 74.9851 25.8273 73.5636 25.8062V25.8086ZM72.9927 11.0717C72.5568 11.0553 72.1233 11.1326 71.7205 11.2991C71.3178 11.4655 70.9577 11.714 70.6616 12.0327C70.0124 12.8227 69.6168 13.7861 69.5221 14.7987H76.2478V14.4143C76.2857 13.5095 75.9753 12.6211 75.3759 11.9366C75.0656 11.639 74.696 11.4092 74.2909 11.2616C73.8858 11.1139 73.4547 11.0483 73.0235 11.074H72.9951L72.9927 11.0717Z"/><path fill="#fff" d="M93.997 25.0281H89.2375V0.0853271H93.997V25.0281Z"/><path fill="#fff" d="M107.858 25.028C107.64 24.6061 107.481 24.0811 107.381 23.4529C106.232 24.7186 104.74 25.3539 102.901 25.3539C101.163 25.3539 99.7199 24.8569 98.578 23.8607C97.4337 22.8645 96.8628 21.6081 96.8628 20.0939C96.8628 18.2327 97.5593 16.8028 98.9547 15.8066C100.35 14.8104 102.366 14.3065 105.003 14.2971H107.185V13.2892C107.185 12.4781 106.974 11.8265 106.552 11.3413C106.13 10.8537 105.467 10.6099 104.557 10.6099C103.759 10.6099 103.131 10.7998 102.679 11.1795C102.224 11.5593 101.999 12.0773 101.999 12.7383H97.2561C97.2561 11.721 97.5735 10.7787 98.2084 9.91375C98.8433 9.04881 99.7412 8.36904 100.9 7.8768C102.058 7.38455 103.361 7.13843 104.806 7.13843C106.995 7.13843 108.732 7.68224 110.018 8.76987C111.304 9.8575 111.946 11.3881 111.946 13.3571V20.9729C111.958 22.6395 112.193 23.9006 112.652 24.7561V25.0327H107.86L107.858 25.028ZM103.934 21.7652C104.633 21.7652 105.28 21.6104 105.87 21.3034C106.46 20.994 106.898 20.5814 107.182 20.061V17.0396H105.41C103.037 17.0396 101.771 17.8506 101.62 19.475L101.603 19.7516C101.603 20.3353 101.812 20.8182 102.226 21.1979C102.643 21.5776 103.212 21.7675 103.934 21.7675V21.7652Z"/><path fill="#fff" d="M131.255 16.4068C131.255 19.222 130.648 21.416 129.433 22.9912C128.217 24.5663 126.521 25.3539 124.344 25.3539C122.418 25.3539 120.881 24.6226 119.732 23.1623L119.518 25.0305H115.252V0.0853271H119.995V9.03247C121.089 7.7667 122.527 7.13147 124.311 7.13147C126.476 7.13147 128.175 7.91906 129.407 9.49425C130.639 11.0694 131.252 13.2869 131.252 16.1443V16.4044L131.255 16.4068ZM126.512 16.0669C126.512 14.2925 126.227 12.9962 125.659 12.1782C125.09 11.3601 124.242 10.9522 123.115 10.9522C121.605 10.9522 120.565 11.564 119.997 12.7876V19.7212C120.577 20.9542 121.627 21.573 123.148 21.573C124.669 21.573 125.685 20.8253 126.168 19.3321C126.398 18.6172 126.512 17.5296 126.512 16.0669V16.0669Z"/><path fill="#C4C4CC" d="M158.067 16.7093H155.875V21.0129H153.909V9.82251H157.887C159.192 9.82251 160.199 10.1132 160.91 10.6921C161.62 11.2711 161.973 12.1103 161.973 13.2073C161.973 13.955 161.791 14.5832 161.426 15.0872C161.061 15.5935 160.552 15.9803 159.9 16.2522L162.44 20.9121V21.0129H160.334L158.064 16.7093H158.067ZM155.875 15.1411H157.896C158.56 15.1411 159.076 14.9747 159.45 14.6442C159.825 14.3137 160.009 13.8613 160.009 13.287C160.009 12.7127 159.837 12.2228 159.493 11.8946C159.149 11.5665 158.635 11.3977 157.951 11.3883H155.875V15.1388V15.1411Z"/><path fill="#C4C4CC" d="M172.041 16.0178H167.396V19.4611H172.825V21.0129H165.429V9.82251H172.771V11.3907H167.396V14.4801H172.041V16.0178V16.0178Z"/><path fill="#C4C4CC" d="M182.349 18.4087H177.967L177.05 21.0152H175.008L179.282 9.82251H181.044L185.325 21.0152H183.273L182.349 18.4087V18.4087ZM178.519 16.8405H181.797L180.158 12.197L178.519 16.8405V16.8405Z"/><path fill="#C4C4CC" d="M196.665 17.3702C196.552 18.5633 196.106 19.4963 195.329 20.1643C194.552 20.8323 193.519 21.1675 192.231 21.1675C191.33 21.1675 190.537 20.9566 189.85 20.5323C189.163 20.1104 188.634 19.508 188.26 18.7298C187.888 17.9515 187.694 17.0467 187.677 16.0154V14.9699C187.677 13.9151 187.867 12.9845 188.243 12.1805C188.62 11.3765 189.165 10.7554 189.871 10.3194C190.577 9.8834 191.394 9.66541 192.323 9.66541C193.571 9.66541 194.576 10.0006 195.336 10.6686C196.097 11.3367 196.54 12.2837 196.665 13.5096H194.709C194.616 12.7056 194.379 12.1243 193.998 11.768C193.616 11.4117 193.06 11.2336 192.323 11.2336C191.468 11.2336 190.811 11.543 190.354 12.1618C189.895 12.7806 189.662 13.6854 189.651 14.8809V15.8724C189.651 17.0819 189.869 18.0054 190.307 18.643C190.745 19.2783 191.385 19.597 192.231 19.597C193.003 19.597 193.583 19.4259 193.972 19.0814C194.36 18.7368 194.607 18.1672 194.711 17.3679H196.668L196.665 17.3702Z"/><path fill="#C4C4CC" d="M207.961 11.3907H204.433V21.0152H202.484V11.3907H198.987V9.82251H207.961V11.3907Z"/><path fill="#00B37E" d="M144.397 31.5703H139.638V0.626831H144.397V31.5703Z"/></svg>